<?xml version="1.0" encoding="UTF-8" standalone="no"?>
<svg width="32" height="32" viewBox="0 0 32 32" fill="none" xmlns="http://www.w3.org/2000/svg">
  <!-- Background circle with gradient -->
  <circle cx="16" cy="16" r="15" fill="url(#paint0_linear)" />
  
  <!-- Stylized wave effect -->
  <path d="M4 16C4 15 5 14 5.5 13.5C6 13 7 12 8 11.5C9 11 10 10.5 11 10C12 9.5 13 9 14 8.5C15 8 16 7.5 17 7C18 6.5 19 6 20 5.5C21 5 22 4.5 23 4"
        stroke="#ffffff" stroke-width="1.5" stroke-linecap="round" fill="none"
        transform="translate(0, 6)" />
  
  <!-- Chat bubble icon -->
  <path d="M14 16H18V20C18 20 17 18 16 18H14V16Z" fill="white"/>
  <path d="M10 11H22V17C22 17 20 15 17 15H10V11Z" fill="white" fill-opacity="0.9"/>
  
  <!-- Definitions for gradients -->
  <defs>
    <linearGradient id="paint0_linear" x1="0" y1="0" x2="32" y2="32" gradientUnits="userSpaceOnUse">
      <stop offset="0%" stop-color="#4F46E5"/>
      <stop offset="100%" stop-color="#0EA5E9"/>
    </linearGradient>
  </defs>
</svg>